<?xml version="1.0" encoding="UTF-8"?><svg id="Livello_1" xmlns="http://www.w3.org/2000/svg" width="1107.8789" height="713.2045" xmlns:xlink="http://www.w3.org/1999/xlink" viewBox="0 0 1107.8789 713.2045"><defs><clipPath id="clippath"><path d="m402.2613,433.4361h-221.6226V39.4404s221.6226,0,221.6226,0v393.9957Zm263.0003,0h-221.6226V135.8687s221.6226,0,221.6226,0v297.5674Zm263.0003,0h-221.6226V39.4404s221.6226,0,221.6226,0v393.9957Z" style="fill:none;"/></clipPath></defs><g style="clip-path:url(#clippath);"><path d="m695.7071,0H160.8034v446.7368h788.1856V0h-253.2819Z" style="fill:#1b4ac2;"/><circle cx="554.4503" cy="308.3379" r="54.1773" style="fill:#9bf082;"/><circle cx="294.3616" cy="338.8296" r="54.1773" style="fill:#9bf082;"/><circle cx="815.7374" cy="135.8687" r="54.1773" style="fill:#9bf082;"/><path d="m291.4499,350.2451v-14.5793c263.1104,0,442.2144-70.3336,517.9536-203.4028l12.6714,7.2137c-78.4823,137.8862-261.9714,210.7684-530.625,210.7684Z" style="fill:#9bf082;"/></g><path d="m0,636.7064l23.6299-7.9902c5.1006,18.6992,17.1699,24.3105,28.5596,24.3105,11.7305,0,22.1006-5.6113,22.1006-16.3203,0-11.2207-11.2207-14.791-22.4404-18.3594l-11.8994-3.5703c-13.0898-3.9102-35.3594-12.75-35.3594-37.9102,0-23.9688,20.2295-39.0996,45.7295-39.0996,25.1592,0,41.8193,14.791,46.0693,30.9395l-23.1201,9.3496c-4.0801-10.709-11.7295-17.3398-23.46-17.3398-11.2197,0-18.6992,5.9512-18.6992,14.1113,0,10.709,12.4092,15.2988,22.9492,18.6992l13.9404,4.4199c12.0693,3.9102,33.1494,10.5391,33.1494,35.6992,0,23.9707-18.8701,42.3301-48.6191,42.3301-25.8398,0-46.2402-13.9395-52.5303-39.2695Z"/><path d="m118.4893,578.2259h23.459v14.1113h.3408c8.3291-11.7305,18.3594-16.8301,30.5996-16.8301,25.8398,0,41.3096,22.4395,41.3096,49.8086,0,31.791-20.5703,50.6602-43.0098,50.6602-14.2803,0-23.6299-7.3105-28.8994-15.1309v49.6406h-23.7998v-132.2598Zm47.2588,74.9707c13.9404,0,23.7998-11.5605,23.7998-27.3711,0-16.1484-10.0293-27.5391-23.7998-27.5391s-23.9697,11.3906-23.9697,27.5391,10.2002,27.3711,23.9697,27.3711Z"/><path d="m243.7764,534.3666c8.3301,0,14.6191,6.6309,14.6191,14.4512,0,8.5-6.2891,15.1289-14.6191,15.1289-8.5,0-14.79-6.6289-14.79-15.1289,0-7.8203,6.29-14.4512,14.79-14.4512Zm-12.0703,43.8594h23.7998v94.8594h-23.7998v-94.8594Z"/><path d="m278.7949,578.2259h23.46v13.9414h.3398c6.9697-11.3906,17.8496-16.6602,29.4102-16.6602,17.5098,0,33.1494,11.9004,33.1494,37.7402v59.8379h-23.7998v-49.2988c0-12.5801-3.2305-25.5-17.8496-25.5-11.2197,0-20.9102,7.8203-20.9102,25.8398v48.959h-23.7998v-94.8594Z"/><path d="m381.6445,626.1654c0-29.2383,19.7197-50.6582,47.4297-50.6582,23.6299,0,45.7295,15.6387,45.7295,50.4883v6.4609h-69.3594c2.04,14.2793,12.75,22.0996,25.1602,22.0996,9.6895,0,18.0195-5.2695,22.2695-15.1289l22.2695,9.0098c-6.29,15.4688-22.2695,27.5391-44.3691,27.5391-28.0498,0-49.1299-19.7207-49.1299-49.8105Zm69.1895-10.0293c-1.7002-14.6191-11.2197-20.2285-21.9297-20.2285-12.2402,0-19.8896,8.3281-22.2695,20.2285h44.1992Z"/><path d="m535.4941,540.4877h86.6992v23.2891h-61.3691v29.75h57.9688v24.4805h-57.9688v31.6191h63.0693v23.459h-88.3994v-132.5977Z"/><path d="m642.4229,578.2259h23.46v13.9414h.3398c6.9707-11.3906,17.8506-16.6602,29.4102-16.6602,17.5098,0,33.1494,11.9004,33.1494,37.7402v59.8379h-23.7998v-49.2988c0-12.5801-3.2295-25.5-17.8496-25.5-11.2197,0-20.9102,7.8203-20.9102,25.8398v48.959h-23.7998v-94.8594Z"/><path d="m748.6729,686.0052l21.5898-7.8203c4.5898,10.3711,11.7305,14.791,22.7803,14.791,15.6396,0,24.1396-9.6895,24.1396-30.0898v-4.4199h-.3398c-6.6299,10.5391-17.3398,14.1094-28.0498,14.1094-28.3896,0-43.5195-22.4395-43.5195-48.2793,0-28.5605,18.5293-48.7891,42.6689-48.7891,14.1104,0,23.9697,6.7988,29.2402,15.4688h.3398v-12.75h23.46v85.3398c0,38.4199-22.7803,49.6387-47.2598,49.6387-16.8301,0-36.7197-5.2695-45.0498-27.1992Zm45.0498-36.209c14.1094,0,23.9697-11.7305,23.9697-26.0098,0-14.4492-10.0303-25.6699-23.9697-25.6699s-23.7998,11.3906-23.7998,25.6699c0,14.4492,9.8604,26.0098,23.7998,26.0098Z"/><path d="m876.5107,534.3666c8.3301,0,14.6201,6.6309,14.6201,14.4512,0,8.5-6.29,15.1289-14.6201,15.1289-8.5,0-14.79-6.6289-14.79-15.1289,0-7.8203,6.29-14.4512,14.79-14.4512Zm-12.0703,43.8594h23.7998v94.8594h-23.7998v-94.8594Z"/><path d="m911.5293,578.2259h23.46v13.9414h.3398c6.9707-11.3906,17.8506-16.6602,29.4102-16.6602,17.5098,0,33.1494,11.9004,33.1494,37.7402v59.8379h-23.7998v-49.2988c0-12.5801-3.2295-25.5-17.8496-25.5-11.2197,0-20.9102,7.8203-20.9102,25.8398v48.959h-23.7998v-94.8594Z"/><path d="m1014.3799,626.1654c0-29.2383,19.7197-50.6582,47.4287-50.6582,23.6299,0,45.7295,15.6387,45.7295,50.4883v6.4609h-69.3584c2.04,14.2793,12.749,22.0996,25.1592,22.0996,9.6904,0,18.0195-5.2695,22.2695-15.1289l22.2705,9.0098c-6.29,15.4688-22.2705,27.5391-44.3701,27.5391-28.0498,0-49.1289-19.7207-49.1289-49.8105Zm69.1885-10.0293c-1.6992-14.6191-11.2197-20.2285-21.9297-20.2285-12.2393,0-19.8896,8.3281-22.2695,20.2285h44.1992Z"/></svg>